name C:/MyDriveSym/Projects/mobilecap/Data\Session20210820_0002\mocap\ForceDataProcessed\walking2_forces.mot
datacolumns 19
datarows 19
range 0.33950000 0.34850000
endheader 
time	R_ground_force_vx	R_ground_force_vy	R_ground_force_vz	R_ground_force_px	R_ground_force_py	R_ground_force_pz	R_ground_torque_x	R_ground_torque_y	R_ground_torque_z	L_ground_force_vx	L_ground_force_vy	L_ground_force_vz	L_ground_force_px	L_ground_force_py	L_ground_force_pz	L_ground_torque_x	L_ground_torque_y	L_ground_torque_z	
          0.33950000	         -1.96503700	        684.11345900	        -33.18237800	          0.23190000	          0.00600000	         -0.13888200	          0.00000000	         -4.18070800	          0.00000000	          0.00000000	          0.00000000	          0.00000000	          0.73999300	          0.00000000	         -0.22286200	          0.00000000	          0.00000000	          0.00000000	
          0.34000000	         -1.86976100	        684.37996800	        -33.22769800	          0.23217000	          0.00600000	         -0.13883200	          0.00000000	         -4.19375000	          0.00000000	          0.00000000	          0.00000000	          0.00000000	          0.73999300	          0.00000000	         -0.22286200	          0.00000000	          0.00000000	          0.00000000	
          0.34050000	         -1.77441900	        684.65040700	        -33.27357100	          0.23244000	          0.00600000	         -0.13878100	          0.00000000	         -4.20673400	          0.00000000	          0.00000000	          0.00000000	          0.00000000	          0.73999300	          0.00000000	         -0.22286200	          0.00000000	          0.00000000	          0.00000000	
          0.34100000	         -1.67899500	        684.92477400	        -33.31999200	          0.23271100	          0.00600000	         -0.13873200	          0.00000000	         -4.21966000	          0.00000000	          0.00000000	          0.00000000	          0.00000000	          0.73999300	          0.00000000	         -0.22286200	          0.00000000	          0.00000000	          0.00000000	
          0.34150000	         -1.58347800	        685.20307200	        -33.36695400	          0.23298100	          0.00600000	         -0.13868200	          0.00000000	         -4.23252600	          0.00000000	          0.00000000	          0.00000000	          0.00000000	          0.73999300	          0.00000000	         -0.22286200	          0.00000000	          0.00000000	          0.00000000	
          0.34200000	         -1.48785300	        685.48529900	        -33.41445100	          0.23325200	          0.00600000	         -0.13863300	          0.00000000	         -4.24533300	          0.00000000	          0.00000000	          0.00000000	          0.00000000	          0.73999300	          0.00000000	         -0.22286200	          0.00000000	          0.00000000	          0.00000000	
          0.34250000	         -1.39210800	        685.77145700	        -33.46247600	          0.23352300	          0.00600000	         -0.13858300	          0.00000000	         -4.25807900	          0.00000000	          0.00000000	          0.00000000	          0.00000000	          0.73999300	          0.00000000	         -0.22286200	          0.00000000	          0.00000000	          0.00000000	
          0.34300000	         -1.29622800	        686.06154600	        -33.51102500	          0.23379400	          0.00600000	         -0.13853500	          0.00000000	         -4.27076400	          0.00000000	          0.00000000	          0.00000000	          0.00000000	          0.73999300	          0.00000000	         -0.22286200	          0.00000000	          0.00000000	          0.00000000	
          0.34350000	         -1.20020200	        686.35556700	        -33.56008900	          0.23406500	          0.00600000	         -0.13848600	          0.00000000	         -4.28338900	          0.00000000	          0.00000000	          0.00000000	          0.00000000	          0.73999300	          0.00000000	         -0.22286200	          0.00000000	          0.00000000	          0.00000000	
          0.34400000	         -1.10401600	        686.65351900	        -33.60966300	          0.23433600	          0.00600000	         -0.13843800	          0.00000000	         -4.29595100	          0.00000000	          0.00000000	          0.00000000	          0.00000000	          0.73999300	          0.00000000	         -0.22286200	          0.00000000	          0.00000000	          0.00000000	
          0.34450000	         -1.00765700	        686.95540400	        -33.65974000	          0.23460700	          0.00600000	         -0.13839000	          0.00000000	         -4.30845100	          0.00000000	          0.00000000	          0.00000000	          0.00000000	          0.73999300	          0.00000000	         -0.22286200	          0.00000000	          0.00000000	          0.00000000	
          0.34500000	         -0.91111200	        687.26122200	        -33.71031300	          0.23487800	          0.00600000	         -0.13834300	          0.00000000	         -4.32088800	          0.00000000	          0.00000000	          0.00000000	          0.00000000	          0.73999300	          0.00000000	         -0.22286200	          0.00000000	          0.00000000	          0.00000000	
          0.34550000	         -0.81436900	        687.57097300	        -33.76137600	          0.23515000	          0.00600000	         -0.13829600	          0.00000000	         -4.33326100	          0.00000000	          0.00000000	          0.00000000	          0.00000000	          0.73999300	          0.00000000	         -0.22286200	          0.00000000	          0.00000000	          0.00000000	
          0.34600000	         -0.71741600	        687.88465900	        -33.81292200	          0.23542100	          0.00600000	         -0.13824900	          0.00000000	         -4.34557100	          0.00000000	          0.00000000	          0.00000000	          0.00000000	          0.73999300	          0.00000000	         -0.22286200	          0.00000000	          0.00000000	          0.00000000	
          0.34650000	         -0.62023900	        688.20227800	        -33.86494300	          0.23569300	          0.00600000	         -0.13820200	          0.00000000	         -4.35781600	          0.00000000	          0.00000000	          0.00000000	          0.00000000	          0.73999300	          0.00000000	         -0.22286200	          0.00000000	          0.00000000	          0.00000000	
          0.34700000	         -0.52282700	        688.52383300	        -33.91743400	          0.23596500	          0.00600000	         -0.13815600	          0.00000000	         -4.36999600	          0.00000000	          0.00000000	          0.00000000	          0.00000000	          0.73999300	          0.00000000	         -0.22286200	          0.00000000	          0.00000000	          0.00000000	
          0.34750000	         -0.42516700	        688.84932300	        -33.97038600	          0.23623600	          0.00600000	         -0.13811000	          0.00000000	         -4.38211100	          0.00000000	          0.00000000	          0.00000000	          0.00000000	          0.73999300	          0.00000000	         -0.22286200	          0.00000000	          0.00000000	          0.00000000	
          0.34800000	         -0.32724700	        689.17874900	        -34.02379400	          0.23650800	          0.00600000	         -0.13806500	          0.00000000	         -4.39416000	          0.00000000	          0.00000000	          0.00000000	          0.00000000	          0.73999300	          0.00000000	         -0.22286200	          0.00000000	          0.00000000	          0.00000000	
          0.34850000	         -0.22905400	        689.51211100	        -34.07764900	          0.23678000	          0.00600000	         -0.13802000	          0.00000000	         -4.40614200	          0.00000000	          0.00000000	          0.00000000	          0.00000000	          0.73999300	          0.00000000	         -0.22286200	          0.00000000	          0.00000000	          0.00000000	
